<?xml version="1.0" encoding="UTF-8"?>
<svg id="Layer_1" data-name="Layer 1" xmlns="http://www.w3.org/2000/svg" viewBox="0 0 1920 1080">
  <defs>
    <style>
      .cls-1 {
        fill: #b32025;
      }

      .cls-1, .cls-2 {
        stroke-width: 0px;
      }

      .cls-2 {
        fill: #ffeed6;
      }
    </style>
  </defs>
  <path class="cls-1" d="M1533.93,360.49c6.81-1.05,13.56-2.38,20.24-3.98-6.94-1.21-13.72.82-20.24,3.98Z"/>
  <path class="cls-1" d="M1434.38,521.01c32.58-11.98,68.73-15.97,104.12-19.94,38.62-4.61,77.4-8.29,116.34-11.05,25.84,2.53,47.5-2.48,64.98-15.04-1.95-11.76-8.84-12.74-23.74-12.81-16.18-.08-29.8-1.03-44.52-5.85,8.86-5.23,19.21-6.84,31.05-4.83,5.96-.73,11.92-1.47,17.88-2.2,7.1-3.67,3.55-9.66-.34-13.72-15.49-6.61-32.04-10.92-49.65-12.92-35.26-7.33-71-12.96-107.23-16.91,12.06,1.67-92.25-7.53-98.11-16.03,20.77-3.43,43.01-6.9,62.12-14.28,8.03-3.11,17.06-10.27,26.66-14.94-21.01,3.25-42.6,3.89-64.8,1.9-70.59,2.38-141.19,2.68-211.78.92-74.45-.83-148.87-2.49-223.26-4.99-93.55.05-187.1.71-280.63,2-137.33,2.79-274.62,1-411.86-5.37-77.99-1.95-155.72-6.01-233.2-12.1v394.32c122.51-2.19,244.69-6.33,367.36-6.55,112.59-.2,225.6,3.37,338.09.07,56.61-1.66,113.03-7.82,167.21-20.97,21.62-5.25,15.86-5.47,34.89-5.04,49.39,1.12,98.71,1.12,148.05-.78,77.15-2.96,153.85-11.87,230.65-18.37,24.06,5.1,44.35,2.68,60.86-7.26,4.64-1.03,5.72-3.11,3.25-6.25,47.19-13.45,99.96-16.84,149.2-23.8,32.38-4.4,64.48-9.79,96.29-16.16,20.12-.25,31.43-6.88,33.91-19.9-6.31-8.08-16.28-10.25-29.9-6.51-15.05-.91-30.1-1.83-45.15-2.74-9.29-.85-65.32-5.67-74.32-19.75,3.21-6.59,8.84-8.94,17.11-10.82,18.15-4.14,37.59-4.53,56.15-7.75,23.59-3.73,46.73-8.77,69.43-15.11,17.89-4.73,35.77-9.46,53.66-14.19,9.19-3.85,24.53-8.93,26.47-17.76-125.64-2.09-251.67.39-377.22,3.47Z"/>
  <g>
    <g>
      <path class="cls-2" d="M423.24,571.41c-.93.05-1.92.08-2.96.08-4.15,0-8.27-.88-12.37-2.64-4.1-1.76-7.78-4.28-11.04-7.54-3.27-3.27-5.91-7.23-7.93-11.9-2.02-4.67-3.03-9.9-3.03-15.71,0-6.12,1.09-11.74,3.27-16.88,2.18-5.13,5.13-9.54,8.87-13.22,3.73-3.68,8.01-6.53,12.83-8.55,4.82-2.02,9.88-3.03,15.17-3.03,2.32,0,4.6.23,6.85.62l-87.74-46.7c-18.52-9.86-40.77,4.03-40.05,25l1.47,42.66c1.97-3.77,4.4-7.12,7.32-10,3.73-3.68,8.01-6.53,12.83-8.55,4.82-2.02,9.88-3.03,15.17-3.03s10.21.99,15.09,2.96c4.87,1.97,9.18,4.74,12.91,8.32,3.73,3.58,6.71,7.93,8.94,13.07,2.23,5.13,3.34,10.86,3.34,17.19,0,4.25-.86,8.82-2.57,13.69-1.71,4.88-4.02,9.49-6.92,13.84l-50.84,79.71c8.45,5.88,20.09,7.01,30.05.79l46.43-28.98,27.56-41.56c-.83.21-1.71.34-2.64.39Z"/>
      <path class="cls-2" d="M355.82,517.83c-1.71-1.87-3.76-3.34-6.14-4.43-2.39-1.09-4.93-1.63-7.62-1.63-3.21,0-6.04.62-8.48,1.87-2.44,1.24-4.46,2.85-6.07,4.82-1.61,1.97-2.83,4.12-3.65,6.45-.83,2.33-1.24,4.64-1.24,6.92,0,3.01.47,5.76,1.4,8.24.93,2.49,2.26,4.62,3.97,6.38,1.71,1.76,3.76,3.16,6.14,4.2,2.38,1.04,5.03,1.56,7.93,1.56,3.11,0,5.86-.62,8.24-1.87,2.38-1.24,4.41-2.82,6.07-4.74,1.66-1.92,2.9-4.02,3.73-6.3.83-2.28,1.24-4.51,1.24-6.69,0-2.9-.49-5.62-1.48-8.17-.99-2.54-2.33-4.74-4.04-6.61Z"/>
      <path class="cls-2" d="M339.1,571.41c-.93.05-1.92.08-2.96.08-4.15,0-8.27-.88-12.37-2.64-4.1-1.76-7.78-4.28-11.04-7.54-1.76-1.76-3.32-3.73-4.71-5.89l2.21,63.97c.01.32.07.61.1.93l31.42-49.29c-.83.21-1.71.34-2.64.39Z"/>
      <path class="cls-2" d="M476.28,515.72l-21.11-11.23c3.19,3.34,5.82,7.28,7.81,11.86,2.23,5.13,3.34,10.86,3.34,17.19,0,4.25-.86,8.82-2.57,13.69-1.71,4.88-4.02,9.49-6.92,13.84l-16.78,25.46,37.84-23.62c17.8-11.11,16.9-37.32-1.63-47.18Z"/>
      <path class="cls-2" d="M439.96,517.83c-1.71-1.87-3.76-3.34-6.14-4.43-2.39-1.09-4.93-1.63-7.62-1.63-3.22,0-6.04.62-8.48,1.87-2.44,1.24-4.46,2.85-6.07,4.82-1.61,1.97-2.83,4.12-3.66,6.45-.83,2.33-1.24,4.64-1.24,6.92,0,3.01.47,5.76,1.4,8.24.93,2.49,2.26,4.62,3.97,6.38,1.71,1.76,3.76,3.16,6.14,4.2,2.38,1.04,5.03,1.56,7.93,1.56,3.11,0,5.86-.62,8.24-1.87,2.38-1.24,4.41-2.82,6.07-4.74,1.66-1.92,2.9-4.02,3.73-6.3.83-2.28,1.24-4.51,1.24-6.69,0-2.9-.49-5.62-1.48-8.17-.99-2.54-2.33-4.74-4.04-6.61Z"/>
    </g>
    <path class="cls-2" d="M548.71,506.09c9.09,0,16.86,3.38,23.3,10.13,6.44,6.75,9.66,14.98,9.66,24.69s-3.22,18.05-9.66,24.76c-6.44,6.71-14.21,10.06-23.3,10.06-10.06,0-17.79-3.71-23.17-11.12v35.88h-14.3v-92.68h14.3v9.53c5.38-7.5,13.11-11.25,23.17-11.25ZM531.5,556.07c3.97,4.02,8.96,6.02,14.96,6.02s10.99-2.01,14.96-6.02c3.97-4.02,5.96-9.07,5.96-15.16s-1.99-11.14-5.96-15.16c-3.97-4.02-8.96-6.02-14.96-6.02s-10.99,2.01-14.96,6.02c-3.97,4.02-5.96,9.07-5.96,15.16s1.99,11.14,5.96,15.16Z"/>
    <path class="cls-2" d="M636.19,507.82h14.3v66.2h-14.3v-8.47c-4.33,6.8-11.17,10.19-20.52,10.19-7.59,0-13.73-2.43-18.4-7.28-4.68-4.85-7.02-11.52-7.02-19.99v-40.65h14.3v39.19c0,4.94,1.32,8.74,3.97,11.39s6.27,3.97,10.86,3.97c5.03,0,9.09-1.57,12.18-4.7,3.09-3.13,4.63-7.92,4.63-14.37v-35.48Z"/>
    <path class="cls-2" d="M701.56,506.09c9.09,0,16.86,3.36,23.3,10.06,6.44,6.71,9.67,14.96,9.67,24.76s-3.22,17.94-9.67,24.69c-6.44,6.75-14.21,10.13-23.3,10.13-10.06,0-17.79-3.75-23.17-11.25v9.53h-14.3v-92.68h14.3v35.88c5.38-7.41,13.11-11.12,23.17-11.12ZM684.35,556.07c3.97,4.02,8.96,6.02,14.96,6.02s10.99-2.01,14.96-6.02c3.97-4.02,5.96-9.07,5.96-15.16s-1.99-11.14-5.96-15.16c-3.97-4.02-8.96-6.02-14.96-6.02s-10.99,2.01-14.96,6.02c-3.97,4.02-5.96,9.07-5.96,15.16s1.99,11.14,5.96,15.16Z"/>
    <path class="cls-2" d="M744.42,574.01v-96.65h14.3v96.65h-14.3Z"/>
    <rect class="cls-2" x="772.18" y="507.82" width="14.3" height="66.2"/>
    <path class="cls-2" d="M831.2,575.74c-9.97,0-18.29-3.35-24.96-10.06-6.67-6.71-10-14.96-10-24.76s3.33-18.16,10-24.82c6.66-6.66,14.98-10,24.96-10,6.44,0,12.31,1.55,17.61,4.63,5.3,3.09,9.27,7.24,11.92,12.45l-12.31,7.15c-1.5-3.18-3.77-5.67-6.82-7.48-3.05-1.81-6.55-2.71-10.53-2.71-5.83,0-10.7,1.99-14.63,5.96-3.93,3.97-5.89,8.92-5.89,14.83s1.96,10.86,5.89,14.83c3.93,3.97,8.8,5.96,14.63,5.96,3.88,0,7.39-.93,10.53-2.78,3.13-1.85,5.49-4.32,7.08-7.41l12.31,7.02c-2.83,5.3-6.88,9.49-12.18,12.58-5.3,3.09-11.17,4.63-17.61,4.63Z"/>
    <path class="cls-2" d="M919.6,507.82h14.3v66.2h-14.3v-9.53c-5.38,7.5-13.11,11.25-23.17,11.25-9.09,0-16.86-3.38-23.3-10.13-6.44-6.75-9.66-14.98-9.66-24.69s3.22-18.05,9.66-24.76c6.44-6.71,14.21-10.06,23.3-10.06,10.06,0,17.78,3.71,23.17,11.12v-9.4ZM883.72,556.07c3.97,4.02,8.96,6.02,14.96,6.02s10.99-2.01,14.96-6.02c3.97-4.02,5.96-9.07,5.96-15.16s-1.99-11.14-5.96-15.16c-3.97-4.02-8.96-6.02-14.96-6.02s-10.99,2.01-14.96,6.02c-3.97,4.02-5.96,9.07-5.96,15.16s1.99,11.14,5.96,15.16Z"/>
    <path class="cls-2" d="M984.44,521.59h-16.42v31.77c0,2.74.62,4.7,1.85,5.89,1.23,1.19,3.07,1.85,5.49,1.99,2.43.13,5.45.11,9.07-.07v12.84c-10.95,1.32-18.8.37-23.57-2.85-4.77-3.22-7.15-9.16-7.15-17.81v-31.77h-12.18v-13.77h12.18v-14.3l14.3-4.24v18.54h16.42v13.77Z"/>
    <rect class="cls-2" x="994.33" y="507.82" width="14.3" height="66.2"/>
    <path class="cls-2" d="M1053.34,575.74c-9.71,0-17.96-3.35-24.76-10.06-6.8-6.71-10.19-14.96-10.19-24.76s3.4-18.05,10.19-24.76c6.8-6.71,15.05-10.06,24.76-10.06s18.07,3.36,24.82,10.06c6.75,6.71,10.13,14.96,10.13,24.76s-3.38,18.05-10.13,24.76c-6.75,6.71-15.03,10.06-24.82,10.06ZM1038.65,555.88c3.97,3.97,8.87,5.96,14.7,5.96s10.72-1.99,14.7-5.96c3.97-3.97,5.96-8.96,5.96-14.96s-1.99-10.99-5.96-14.96c-3.97-3.97-8.87-5.96-14.7-5.96s-10.72,1.99-14.7,5.96c-3.97,3.97-5.96,8.96-5.96,14.96s1.99,10.99,5.96,14.96Z"/>
    <path class="cls-2" d="M1133.01,506.09c7.59,0,13.72,2.43,18.4,7.28,4.68,4.86,7.02,11.52,7.02,19.99v40.65h-14.3v-39.19c0-4.94-1.32-8.74-3.97-11.39-2.65-2.65-6.27-3.97-10.86-3.97-5.03,0-9.09,1.57-12.18,4.7-3.09,3.13-4.63,7.92-4.63,14.36v35.48h-14.3v-66.2h14.3v8.47c4.32-6.8,11.16-10.19,20.52-10.19Z"/>
    <rect class="cls-2" x="772.38" y="481.22" width="13.9" height="15.31"/>
    <rect class="cls-2" x="994.33" y="481.22" width="13.9" height="15.31"/>
  </g>
</svg>